{
  "accessors": [
    {
      "bufferView": 2,
      "componentType": 5126,
      "count": 140,
      "max": [
        2.058039903640747,
        2.0578019618988037,
        0.2057429999113083
      ],
      "min": [
        -2.058065891265869,
        -2.0583059787750244,
        0.14905700087547302
      ],
      "type": "VEC3"
    },
    {
      "bufferView": 2,
      "byteOffset": 1680,
      "componentType": 5126,
      "count": 140,
      "max": [
        0.9863223433494568,
        0.9863187670707703,
        0.5714792013168335
      ],
      "min": [
        -0.9863210916519165,
        -0.9863200783729553,
        0.15477143228054047
      ],
      "type": "VEC3"
    },
    {
      "bufferView": 3,
      "componentType": 5126,
      "count": 140,
      "max": [
        0.9999940395355225,
        0.9999979734420776,
        0.9879357814788818,
        1.0
      ],
      "min": [
        -0.9876377582550049,
        -0.9999973773956299,
        -0.987660825252533,
        1.0
      ],
      "type": "VEC4"
    },
    {
      "bufferView": 1,
      "componentType": 5126,
      "count": 140,
      "max": [
        0.8417249917984009,
        0.9878100156784058
      ],
      "min": [
        0.027956999838352203,
        0.0024220000486820936
      ],
      "type": "VEC2"
    },
    {
      "bufferView": 0,
      "componentType": 5125,
      "count": 264,
      "type": "SCALAR"
    },
    {
      "bufferView": 2,
      "byteOffset": 3360,
      "componentType": 5126,
      "count": 229,
      "max": [
        3.41615891456604,
        4.434370040893555,
        -0.09608200192451477
      ],
      "min": [
        -2.83145809173584,
        -4.616121768951416,
        -1.7685489654541016
      ],
      "type": "VEC3"
    },
    {
      "bufferView": 2,
      "byteOffset": 6108,
      "componentType": 5126,
      "count": 229,
      "max": [
        0.0017839994980022311,
        0.0011349997948855162,
        1.0
      ],
      "min": [
        -0.0019880004692822695,
        -0.001265000319108367,
        0.9999972581863403
      ],
      "type": "VEC3"
    },
    {
      "bufferView": 3,
      "byteOffset": 2240,
      "componentType": 5126,
      "count": 229,
      "max": [
        1.0,
        0.9137647151947021,
        0.00034822418820112944,
        1.0
      ],
      "min": [
        -0.40630462765693665,
        -0.00010482914512977004,
        -0.0003123806673102081,
        1.0
      ],
      "type": "VEC4"
    },
    {
      "bufferView": 1,
      "byteOffset": 1120,
      "componentType": 5126,
      "count": 229,
      "max": [
        0.6904420256614685,
        0.49510300159454346
      ],
      "min": [
        0.4997679889202118,
        0.11441999673843384
      ],
      "type": "VEC2"
    },
    {
      "bufferView": 0,
      "byteOffset": 1056,
      "componentType": 5125,
      "count": 372,
      "type": "SCALAR"
    },
    {
      "bufferView": 2,
      "byteOffset": 8856,
      "componentType": 5126,
      "count": 24182,
      "max": [
        3.4397830963134766,
        4.890771865844727,
        0.7223899960517883
      ],
      "min": [
        -3.637489080429077,
        -6.792722225189209,
        -2.4046080112457275
      ],
      "type": "VEC3"
    },
    {
      "bufferView": 2,
      "byteOffset": 299040,
      "componentType": 5126,
      "count": 24182,
      "max": [
        1.0,
        1.0,
        1.0
      ],
      "min": [
        -1.0,
        -1.0,
        -1.0
      ],
      "type": "VEC3"
    },
    {
      "bufferView": 3,
      "byteOffset": 5904,
      "componentType": 5126,
      "count": 24182,
      "max": [
        1.0,
        1.0,
        1.0,
        1.0
      ],
      "min": [
        -0.9656031131744385,
        -1.0,
        -1.0,
        -1.0
      ],
      "type": "VEC4"
    },
    {
      "bufferView": 1,
      "byteOffset": 2952,
      "componentType": 5126,
      "count": 24182,
      "max": [
        0.9951440095901489,
        0.9951459765434265
      ],
      "min": [
        0.0024220000486820936,
        0.0024220000486820936
      ],
      "type": "VEC2"
    },
    {
      "bufferView": 0,
      "byteOffset": 2544,
      "componentType": 5125,
      "count": 61482,
      "type": "SCALAR"
    },
    {
      "bufferView": 2,
      "byteOffset": 589224,
      "componentType": 5126,
      "count": 346,
      "max": [
        1.0104550123214722,
        1.0102139711380005,
        1.3292139768600464
      ],
      "min": [
        -1.0104789733886719,
        -3.061263084411621,
        0.23983199894428253
      ],
      "type": "VEC3"
    },
    {
      "bufferView": 2,
      "byteOffset": 593376,
      "componentType": 5126,
      "count": 346,
      "max": [
        1.0,
        1.0,
        1.0
      ],
      "min": [
        -1.0,
        -1.0,
        -0.11170394718647003
      ],
      "type": "VEC3"
    },
    {
      "bufferView": 3,
      "byteOffset": 392816,
      "componentType": 5126,
      "count": 346,
      "max": [
        1.0,
        0.6821181178092957,
        1.0,
        1.0
      ],
      "min": [
        -0.8909565210342407,
        -0.7109052538871765,
        -1.0,
        1.0
      ],
      "type": "VEC4"
    },
    {
      "bufferView": 1,
      "byteOffset": 196408,
      "componentType": 5126,
      "count": 346,
      "max": [
        0.9058849811553955,
        0.9947159886360168
      ],
      "min": [
        0.04761900007724762,
        0.0024220000486820936
      ],
      "type": "VEC2"
    },
    {
      "bufferView": 0,
      "byteOffset": 248472,
      "componentType": 5125,
      "count": 1440,
      "type": "SCALAR"
    }
  ],
  "asset": {
    "extras": {
      "author": "TonyGeneralist (https://sketchfab.com/kamilot.2292)",
      "license": "CC-BY-NC-4.0 (http://creativecommons.org/licenses/by-nc/4.0/)",
      "source": "https://sketchfab.com/3d-models/steampunk-book-670778920a1f48c5bd7900ad98a09a52",
      "title": "Steampunk book"
    },
    "generator": "Sketchfab-12.67.0",
    "version": "2.0"
  },
  "bufferViews": [
    {
      "buffer": 0,
      "byteLength": 254232,
      "name": "floatBufferViews",
      "target": 34963
    },
    {
      "buffer": 0,
      "byteLength": 199176,
      "byteOffset": 254232,
      "byteStride": 8,
      "name": "floatBufferViews",
      "target": 34962
    },
    {
      "buffer": 0,
      "byteLength": 597528,
      "byteOffset": 453408,
      "byteStride": 12,
      "name": "floatBufferViews",
      "target": 34962
    },
    {
      "buffer": 0,
      "byteLength": 398352,
      "byteOffset": 1050936,
      "byteStride": 16,
      "name": "floatBufferViews",
      "target": 34962
    }
  ],
  "buffers": [
    {
      "byteLength": 1449288,
      "uri": "scene.bin"
    }
  ],
  "extensionsUsed": [
    "KHR_materials_transmission"
  ],
  "images": [
    {
      "uri": "textures/lambert6SG_baseColor.png"
    },
    {
      "uri": "textures/lambert6SG_metallicRoughness.png"
    },
    {
      "uri": "textures/lambert6SG_emissive.png"
    },
    {
      "uri": "textures/lambert6SG_normal.png"
    },
    {
      "uri": "textures/lambert7SG_baseColor.png"
    },
    {
      "uri": "textures/lambert7SG_normal.png"
    }
  ],
  "materials": [
    {
      "doubleSided": true,
      "emissiveFactor": [
        1.0,
        1.0,
        1.0
      ],
      "emissiveTexture": {
        "index": 2
      },
      "extensions": {
        "KHR_materials_transmission": {
          "transmissionFactor": 0.0
        }
      },
      "name": "lambert6SG",
      "normalTexture": {
        "index": 3,
        "scale": 0.6724466463414634
      },
      "pbrMetallicRoughness": {
        "baseColorTexture": {
          "index": 0
        },
        "metallicRoughnessTexture": {
          "index": 1
        }
      }
    },
    {
      "alphaMode": "BLEND",
      "doubleSided": true,
      "name": "lambert7SG",
      "normalTexture": {
        "index": 5
      },
      "pbrMetallicRoughness": {
        "baseColorFactor": [
          1.0,
          1.0,
          1.0,
          0.1480564024390244
        ],
        "baseColorTexture": {
          "index": 4
        },
        "metallicFactor": 0.2883003048780488,
        "roughnessFactor": 0.14195884146341464
      }
    }
  ],
  "meshes": [
    {
      "name": "Object_0",
      "primitives": [
        {
          "attributes": {
            "NORMAL": 1,
            "POSITION": 0,
            "TANGENT": 2,
            "TEXCOORD_0": 3
          },
          "indices": 4,
          "material": 0,
          "mode": 4
        }
      ]
    },
    {
      "name": "Object_1",
      "primitives": [
        {
          "attributes": {
            "NORMAL": 6,
            "POSITION": 5,
            "TANGENT": 7,
            "TEXCOORD_0": 8
          },
          "indices": 9,
          "material": 0,
          "mode": 4
        }
      ]
    },
    {
      "name": "Object_2",
      "primitives": [
        {
          "attributes": {
            "NORMAL": 11,
            "POSITION": 10,
            "TANGENT": 12,
            "TEXCOORD_0": 13
          },
          "indices": 14,
          "material": 0,
          "mode": 4
        }
      ]
    },
    {
      "name": "Object_3",
      "primitives": [
        {
          "attributes": {
            "NORMAL": 16,
            "POSITION": 15,
            "TANGENT": 17,
            "TEXCOORD_0": 18
          },
          "indices": 19,
          "material": 1,
          "mode": 4
        }
      ]
    }
  ],
  "nodes": [
    {
      "children": [
        1
      ],
      "matrix": [
        1.0,
        0.0,
        0.0,
        0.0,
        0.0,
        2.220446049250313e-16,
        -1.0,
        0.0,
        0.0,
        1.0,
        2.220446049250313e-16,
        0.0,
        0.0,
        0.0,
        0.0,
        1.0
      ],
      "name": "Sketchfab_model"
    },
    {
      "children": [
        2,
        3,
        4,
        5
      ],
      "name": "book2.obj.cleaner.materialmerger.gles"
    },
    {
      "mesh": 0,
      "name": "Object_2"
    },
    {
      "mesh": 1,
      "name": "Object_3"
    },
    {
      "mesh": 2,
      "name": "Object_4"
    },
    {
      "mesh": 3,
      "name": "Object_5"
    }
  ],
  "samplers": [
    {
      "magFilter": 9729,
      "minFilter": 9987,
      "wrapS": 10497,
      "wrapT": 10497
    }
  ],
  "scene": 0,
  "scenes": [
    {
      "name": "Sketchfab_Scene",
      "nodes": [
        0
      ]
    }
  ],
  "textures": [
    {
      "sampler": 0,
      "source": 0
    },
    {
      "sampler": 0,
      "source": 1
    },
    {
      "sampler": 0,
      "source": 2
    },
    {
      "sampler": 0,
      "source": 3
    },
    {
      "sampler": 0,
      "source": 4
    },
    {
      "sampler": 0,
      "source": 5
    }
  ]
}
